<?xml version="1.0" encoding="utf-8"?>
<!-- Generator: Adobe Illustrator 27.8.1, SVG Export Plug-In . SVG Version: 6.00 Build 0)  -->
<svg version="1.1" id="Layer_1" xmlns="http://www.w3.org/2000/svg" xmlns:xlink="http://www.w3.org/1999/xlink" x="0px" y="0px"
	 viewBox="0 0 31.9 32" style="enable-background:new 0 0 31.9 32;" xml:space="preserve">
<style type="text/css">
	.st0{fill:#0062CC;}
</style>
<g>
	<path class="st0" d="M21.1,0.3l-3.3,5.9h2.4c2.6,0,4.8,2.1,4.8,4.8s-2.2,4.8-4.8,4.8h-6.8c0-0.6,0-1.2,0-1.9
		c-0.3,0.6-0.7,1.3-1,1.9L3.1,31.8L17,21.6h3.2c5.9,0,10.7-4.8,10.7-10.7C30.8,5.3,26.5,0.7,21.1,0.3z"/>
	<polygon points="19.6,0.2 14.7,0.2 14.7,6.1 16.2,6.1 	"/>
	<polygon points="7.3,21.6 13.2,11.4 13.2,0.2 11.9,0.2 7.3,0.2 1.1,0.2 1.1,6.1 7.3,6.1 	"/>
</g>
</svg>
