<?xml version="1.0" encoding="utf-8"?>
<!-- Generator: Adobe Illustrator 27.8.1, SVG Export Plug-In . SVG Version: 6.00 Build 0)  -->
<svg version="1.1" id="Layer_1" xmlns="http://www.w3.org/2000/svg" xmlns:xlink="http://www.w3.org/1999/xlink" x="0px" y="0px"
	 viewBox="0 0 266 73" style="enable-background:new 0 0 266 73;" xml:space="preserve">
<style type="text/css">
	.st0{fill:#0062CC;}
	.st1{fill:#FFFFFF;}
</style>
<g>
	<g>
		<g>
			<g>
				<path class="st0" d="M120.7,16h-6.4v20.3h-4.6V16h-6.4v-4.5h17.4V16z"/>
				<path class="st0" d="M136.7,27.5c0,5.1-4.1,9.1-9.1,9.1c-5.1,0-9.1-4.1-9.1-9.1s4.1-9.1,9.1-9.1
					C132.6,18.3,136.7,22.4,136.7,27.5z M123,27.5c0,2.6,1.9,4.6,4.6,4.6s4.5-2,4.5-4.6c0-2.6-1.9-4.6-4.5-4.6S123,24.8,123,27.5z"
					/>
				<path class="st0" d="M147.8,18.3c5,0,9.1,4.1,9.1,9.1s-4.1,9.1-9.1,9.1c-1.8,0-3.2-0.5-4.5-1.3v8.1h-4.6V27.5
					C138.7,22.4,142.7,18.3,147.8,18.3z M152.3,27.5c0-2.6-1.9-4.6-4.5-4.6c-2.6,0-4.6,2-4.6,4.6c0,2.6,1.9,4.6,4.6,4.6
					C150.4,32.1,152.3,30.1,152.3,27.5z"/>
				<path class="st1" d="M176.5,28.8c0,4.9-4,7.8-8.9,7.8c-4.9,0-8.9-3.5-8.9-8.4h4.6c0,2.5,1.8,3.9,4.5,3.9c2.3,0,4.1-0.9,4.1-3.3
					c0-5.3-12.4-1.8-12.4-10.7c0-4.5,3.1-6.8,8-6.8c4.9,0,8,2.9,8,7.8h-4.6c0-2.4-1.2-3.3-3.4-3.3c-2.2,0-3.4,0.9-3.4,2.5
					C164.1,23.5,176.5,19.2,176.5,28.8z"/>
				<path class="st1" d="M194,27v9.3h-4.6V27c0-2.8-0.9-4.2-3.2-4.2c-2.3,0-3.2,1.3-3.2,4.2v9.3h-4.6V11.5h4.6v7.7
					c1-0.6,2-0.9,3.2-0.9C190.7,18.3,194,21,194,27z"/>
				<path class="st1" d="M204.9,18.3c4.4,0,9.1,3.1,9.2,8.8c0,0.8,0,1.6-0.1,2.2h-13.1c0.4,1.8,2,2.8,4,2.8c1.7,0,2.5-0.6,3-1l5.5,0
					c-1.4,3.2-4.6,5.5-8.4,5.5c-5.1,0-9.1-4.1-9.1-9.1C195.9,22.6,199.8,18.3,204.9,18.3z M209.3,25.6c-0.7-1.7-2.4-2.8-4.2-2.8
					c-2.1,0-3.5,1.1-4.2,2.8H209.3z"/>
				<path class="st1" d="M216.1,36.3V11.5h4.6v24.8H216.1z"/>
				<path class="st1" d="M225.2,23.1h-2.7v-4.5h2.7c0.4-4.4,2.9-7.2,7.7-7.2v4.5c-1.7,0-3.1,1-3.1,2.7h3.1v4.5h-3.2v13.2h-4.6V23.1z
					"/>
			</g>
			<g>
				<path class="st0" d="M109.8,36.3h2.3v10.5c0.7-1.2,1.7-2.1,2.9-2.7c1.2-0.7,2.5-1,3.9-1c1.6,0,3.2,0.4,4.5,1.2
					c1.4,0.8,2.5,1.9,3.3,3.3c0.8,1.4,1.2,2.9,1.2,4.6s-0.4,3.2-1.2,4.6c-0.8,1.4-1.9,2.5-3.3,3.3c-1.4,0.8-2.9,1.2-4.5,1.2
					c-1.6,0-3.2-0.4-4.5-1.2c-1.4-0.8-2.5-1.9-3.3-3.3c-0.8-1.4-1.2-2.9-1.2-4.6V36.3z M115.3,46.1c-1,0.6-1.9,1.5-2.5,2.5
					c-0.6,1.1-0.9,2.2-0.9,3.5s0.3,2.4,0.9,3.5c0.6,1.1,1.4,1.9,2.4,2.5c1,0.6,2.2,0.9,3.5,0.9c1.3,0,2.4-0.3,3.5-0.9
					c1-0.6,1.9-1.5,2.5-2.5c0.6-1.1,0.9-2.2,0.9-3.5s-0.3-2.4-0.9-3.5c-0.6-1.1-1.4-1.9-2.5-2.5c-1-0.6-2.2-0.9-3.4-0.9
					C117.5,45.2,116.4,45.5,115.3,46.1z"/>
				<path class="st0" d="M129.8,51.8c0-2.8,0.7-5,2-6.4c1.3-1.4,3.1-2.1,5.3-2.1c0.2,0,0.4,0,0.5,0v2.1c-0.1,0-0.3,0-0.5,0
					c-1.5,0-2.7,0.5-3.6,1.6c-0.9,1.1-1.3,2.7-1.3,4.8V61h-2.3V51.8z"/>
				<path class="st0" d="M142.7,60c-1.4-0.8-2.5-1.9-3.3-3.3c-0.8-1.4-1.2-2.9-1.2-4.6s0.4-3.2,1.2-4.6c0.8-1.4,1.9-2.5,3.3-3.3
					c1.4-0.8,2.9-1.2,4.5-1.2s3.2,0.4,4.5,1.2c1.4,0.8,2.5,1.9,3.3,3.3c0.8,1.4,1.2,2.9,1.2,4.6V61H154v-3.8
					c-0.6,1.2-1.5,2.2-2.7,2.9c-1.2,0.8-2.6,1.1-4.1,1.1C145.6,61.2,144.1,60.8,142.7,60z M150.7,58.2c1-0.6,1.9-1.5,2.5-2.5
					c0.6-1.1,0.9-2.2,0.9-3.5s-0.3-2.4-0.9-3.5c-0.6-1.1-1.4-1.9-2.4-2.5c-1-0.6-2.2-0.9-3.5-0.9c-1.3,0-2.4,0.3-3.5,0.9
					c-1,0.6-1.9,1.5-2.5,2.5c-0.6,1.1-0.9,2.2-0.9,3.5s0.3,2.4,0.9,3.5c0.6,1.1,1.4,1.9,2.5,2.5c1.1,0.6,2.2,0.9,3.5,0.9
					C148.5,59.1,149.6,58.8,150.7,58.2z"/>
				<path class="st0" d="M173.9,61h-2.3v-9.3c0-2.1-0.5-3.8-1.5-4.8c-1-1.1-2.3-1.6-4-1.6c-1.7,0-3,0.5-4,1.6
					c-1,1.1-1.5,2.7-1.5,4.8V61h-2.3v-9.3c0-2.9,0.7-5,2.1-6.5c1.4-1.4,3.3-2.2,5.6-2.2c2.3,0,4.2,0.7,5.6,2.2
					c1.4,1.4,2.1,3.6,2.1,6.5V61z"/>
				<path class="st0" d="M192.8,56.7c-0.8,1.4-1.9,2.5-3.3,3.3c-1.4,0.8-2.9,1.2-4.5,1.2s-3.2-0.4-4.5-1.2c-1.4-0.8-2.5-1.9-3.3-3.3
					c-0.8-1.4-1.2-2.9-1.2-4.6s0.4-3.2,1.2-4.6c0.8-1.4,1.9-2.5,3.3-3.3c1.4-0.8,2.9-1.2,4.5-1.2c1.4,0,2.7,0.3,3.9,1
					c1.2,0.7,2.1,1.6,2.9,2.7V36.3h2.3v15.9C194,53.8,193.6,55.3,192.8,56.7z M181.5,46.1c-1,0.6-1.9,1.5-2.5,2.5
					c-0.6,1.1-0.9,2.2-0.9,3.5s0.3,2.4,0.9,3.5c0.6,1.1,1.4,1.9,2.5,2.5c1,0.6,2.2,0.9,3.5,0.9c1.3,0,2.5-0.3,3.5-0.9
					c1-0.6,1.9-1.5,2.4-2.5c0.6-1.1,0.9-2.2,0.9-3.5s-0.3-2.4-0.9-3.5c-0.6-1.1-1.4-1.9-2.5-2.5c-1-0.6-2.2-0.9-3.5-0.9
					C183.7,45.2,182.5,45.5,181.5,46.1z"/>
				<path class="st0" d="M198.8,60.6c-0.9-0.4-1.7-1-2.3-1.8c-0.6-0.8-0.8-1.7-0.8-2.7h2.2c0,1,0.4,1.7,1.1,2.3
					c0.8,0.6,1.7,0.8,2.9,0.8c1.2,0,2.2-0.3,2.9-0.8c0.7-0.5,1-1.3,1-2.3c0-0.7-0.2-1.3-0.6-1.7c-0.4-0.4-0.9-0.8-1.4-1
					c-0.6-0.2-1.3-0.5-2.3-0.7c-1.2-0.3-2.1-0.6-2.8-0.9c-0.7-0.3-1.3-0.8-1.8-1.4c-0.5-0.7-0.7-1.5-0.7-2.6c0-1.4,0.5-2.5,1.6-3.3
					c1.1-0.8,2.4-1.3,4.1-1.3c1.6,0,3,0.4,4.1,1.3c1.1,0.9,1.6,2,1.6,3.5h-2.2c0-0.9-0.3-1.6-1-2c-0.7-0.5-1.5-0.7-2.5-0.7
					c-1,0-1.8,0.2-2.5,0.7c-0.6,0.5-1,1.2-1,2c0,0.7,0.2,1.2,0.5,1.6c0.4,0.4,0.8,0.7,1.4,0.9c0.5,0.2,1.3,0.4,2.2,0.7
					c1.2,0.3,2.2,0.7,2.9,1c0.7,0.3,1.4,0.8,1.9,1.5c0.5,0.7,0.8,1.7,0.8,2.9c0,1.6-0.6,2.8-1.7,3.7c-1.1,0.9-2.6,1.3-4.5,1.3
					C200.8,61.2,199.8,61,198.8,60.6z"/>
			</g>
		</g>
	</g>
	<g>
		<g>
			<path class="st0" d="M77,17.2l-4.6,8h3.2c3.6,0,6.6,2.9,6.6,6.6s-2.9,6.6-6.6,6.6h-9.3c0-0.9,0-1.7,0-2.6
				c-0.5,0.9-0.9,1.7-1.4,2.6l-12.6,22l19-13.9h4.3c8.1,0,14.7-6.6,14.7-14.7C90.3,24.1,84.4,17.8,77,17.2z"/>
			<polygon class="st1" points="74.9,17.1 68.2,17.1 68.2,25.2 70.3,25.2 			"/>
			<polygon class="st1" points="58,46.4 66.1,32.3 66.1,17.1 64.4,17.1 58,17.1 49.6,17.1 49.6,25.2 58,25.2 			"/>
		</g>
		<g>
			<path class="st0" d="M67.4,70.8c-18.9,0-34.3-15.4-34.3-34.3S48.5,2.2,67.4,2.2c18.9,0,34.3,15.4,34.3,34.3S86.3,70.8,67.4,70.8z
				 M67.4,4.2c-17.8,0-32.3,14.5-32.3,32.3c0,17.8,14.5,32.3,32.3,32.3s32.3-14.5,32.3-32.3C99.7,18.7,85.2,4.2,67.4,4.2z"/>
		</g>
	</g>
	<g>
		<polygon class="st0" points="189.4,36.3 189.4,45.3 192.8,49.4 191.7,36.3 		"/>
	</g>
	<polygon class="st0" points="114.3,36.3 114.3,44.9 111.4,47.9 111.4,35.5 	"/>
</g>
</svg>
